<mxfile host="app.diagrams.net" agent="Mozilla/5.0 (Macintosh; Intel Mac OS X 10_15_7) AppleWebKit/605.1.15 (KHTML, like Gecko) Version/18.2 Safari/605.1.15" version="26.0.4">
  <diagram name="Page-1" id="IMkLSuKSu9Zyk53Ysur7">
    <mxGraphModel dx="1208" dy="792" grid="1" gridSize="10" guides="1" tooltips="1" connect="1" arrows="1" fold="1" page="1" pageScale="1" pageWidth="827" pageHeight="1169" math="0" shadow="0">
      <root>
        <mxCell id="0" />
        <mxCell id="1" parent="0" />
        <mxCell id="PSmPyi2Har8T8SfamCuA-1" value="&lt;font style=&quot;font-size: 17px;&quot;&gt;AI Colour Analysis System&lt;/font&gt;" style="rounded=0;whiteSpace=wrap;html=1;" vertex="1" parent="1">
          <mxGeometry x="500" y="150" width="120" height="60" as="geometry" />
        </mxCell>
        <mxCell id="PSmPyi2Har8T8SfamCuA-2" value="&lt;font style=&quot;font-size: 17px;&quot;&gt;User&lt;/font&gt;" style="rounded=0;whiteSpace=wrap;html=1;" vertex="1" parent="1">
          <mxGeometry x="90" y="150" width="120" height="60" as="geometry" />
        </mxCell>
        <mxCell id="PSmPyi2Har8T8SfamCuA-3" value="" style="endArrow=none;dashed=1;html=1;rounded=0;exitX=0.433;exitY=1.05;exitDx=0;exitDy=0;exitPerimeter=0;" edge="1" parent="1" source="PSmPyi2Har8T8SfamCuA-1">
          <mxGeometry width="50" height="50" relative="1" as="geometry">
            <mxPoint x="380" y="420" as="sourcePoint" />
            <mxPoint x="552" y="500" as="targetPoint" />
          </mxGeometry>
        </mxCell>
        <mxCell id="PSmPyi2Har8T8SfamCuA-4" value="" style="endArrow=none;dashed=1;html=1;rounded=0;exitX=0.5;exitY=1;exitDx=0;exitDy=0;" edge="1" parent="1" source="PSmPyi2Har8T8SfamCuA-2">
          <mxGeometry width="50" height="50" relative="1" as="geometry">
            <mxPoint x="380" y="420" as="sourcePoint" />
            <mxPoint x="150" y="500" as="targetPoint" />
          </mxGeometry>
        </mxCell>
        <mxCell id="PSmPyi2Har8T8SfamCuA-5" value="&lt;font style=&quot;font-size: 17px;&quot;&gt;input : User Registration , Photo Upload&amp;nbsp;&lt;/font&gt;&lt;div&gt;&lt;font style=&quot;font-size: 17px;&quot;&gt;(Name ,Email , Password &amp;amp; Photo)&lt;/font&gt;&lt;/div&gt;" style="text;html=1;align=center;verticalAlign=middle;resizable=0;points=[];autosize=1;strokeColor=none;fillColor=none;" vertex="1" parent="1">
          <mxGeometry x="205" y="225" width="330" height="50" as="geometry" />
        </mxCell>
        <mxCell id="PSmPyi2Har8T8SfamCuA-6" value="&lt;font style=&quot;font-size: 17px;&quot;&gt;Process : Generates Basic &amp;amp; Detailed Report&amp;nbsp;&lt;/font&gt;&lt;div&gt;&lt;font style=&quot;font-size: 17px;&quot;&gt;(AI analyses user Photo &amp;amp; Create Reports )&lt;/font&gt;&lt;/div&gt;" style="text;html=1;align=center;verticalAlign=middle;resizable=0;points=[];autosize=1;strokeColor=none;fillColor=none;" vertex="1" parent="1">
          <mxGeometry x="180" y="305" width="370" height="50" as="geometry" />
        </mxCell>
        <mxCell id="PSmPyi2Har8T8SfamCuA-8" value="&lt;font style=&quot;font-size: 17px;&quot;&gt;(Free or Paid PDF Report sent to user )&lt;/font&gt;" style="text;html=1;align=center;verticalAlign=middle;resizable=0;points=[];autosize=1;strokeColor=none;fillColor=none;" vertex="1" parent="1">
          <mxGeometry x="205" y="440" width="320" height="30" as="geometry" />
        </mxCell>
        <mxCell id="PSmPyi2Har8T8SfamCuA-9" value="" style="endArrow=classic;html=1;rounded=0;" edge="1" parent="1">
          <mxGeometry width="50" height="50" relative="1" as="geometry">
            <mxPoint x="550" y="440" as="sourcePoint" />
            <mxPoint x="150" y="440" as="targetPoint" />
          </mxGeometry>
        </mxCell>
        <mxCell id="PSmPyi2Har8T8SfamCuA-10" value="" style="endArrow=classic;html=1;rounded=0;" edge="1" parent="1">
          <mxGeometry width="50" height="50" relative="1" as="geometry">
            <mxPoint x="150" y="280" as="sourcePoint" />
            <mxPoint x="550" y="280" as="targetPoint" />
          </mxGeometry>
        </mxCell>
        <mxCell id="PSmPyi2Har8T8SfamCuA-7" value="&lt;font style=&quot;font-size: 17px;&quot;&gt;Output: Email with Analysis Report&amp;nbsp;&lt;/font&gt;&lt;div&gt;&lt;br&gt;&lt;/div&gt;" style="text;html=1;align=center;verticalAlign=middle;resizable=0;points=[];autosize=1;strokeColor=none;fillColor=none;" vertex="1" parent="1">
          <mxGeometry x="220" y="405" width="290" height="50" as="geometry" />
        </mxCell>
        <mxCell id="PSmPyi2Har8T8SfamCuA-12" value="" style="endArrow=none;dashed=1;html=1;rounded=0;" edge="1" parent="1">
          <mxGeometry width="50" height="50" relative="1" as="geometry">
            <mxPoint x="150" y="500" as="sourcePoint" />
            <mxPoint x="550" y="500" as="targetPoint" />
          </mxGeometry>
        </mxCell>
      </root>
    </mxGraphModel>
  </diagram>
</mxfile>
